<svg id="Component_29_1" data-name="Component 29 – 1" xmlns="http://www.w3.org/2000/svg" xmlns:xlink="http://www.w3.org/1999/xlink" width="160" height="160" viewBox="0 0 160 160">
  <defs>
    <linearGradient id="linear-gradient" x1="0.037" y1="0.963" x2="0.963" y2="0.037" gradientUnits="objectBoundingBox">
      <stop offset="0" stop-color="#8abb2a"/>
      <stop offset="0.5" stop-color="#45a735"/>
      <stop offset="1" stop-color="#248332"/>
    </linearGradient>
  </defs>
  <rect id="Rectangle_52" data-name="Rectangle 52" width="160" height="160" rx="20" fill="url(#linear-gradient)"/>
  <g id="Group_156" data-name="Group 156" transform="translate(-28.84 -32.206)">
    <path id="Path_130" data-name="Path 130" d="M140.628,80.218h0v0h-5.61V72.74a26.177,26.177,0,1,0-52.355,0v7.48h-5.61a1.868,1.868,0,0,0-1.869,1.868v46.745a7.485,7.485,0,0,0,7.48,7.479h52.355a7.486,7.486,0,0,0,7.479-7.479V82.088A1.869,1.869,0,0,0,140.628,80.218Zm-26.19,39.061a1.869,1.869,0,0,1-1.651,2.065,2.071,2.071,0,0,1-.208.011H105.1a1.869,1.869,0,0,1-1.87-1.869,1.8,1.8,0,0,1,.011-.207l1.179-10.606a7.4,7.4,0,0,1-3.06-6.016,7.48,7.48,0,0,1,14.959,0,7.4,7.4,0,0,1-3.061,6.016ZM123.8,80.22H93.881V72.74a14.959,14.959,0,0,1,29.917,0Z" fill="#fff" style="isolation: isolate"/>
    <g id="Group_155" data-name="Group 155">
      <g id="Group_154" data-name="Group 154">
        <g id="Group_152" data-name="Group 152">
          <path id="Path_131" data-name="Path 131" d="M82.142,151.155v-8.831H99.813v34.733H88.094v-25.9Z" fill="#fff"/>
        </g>
        <g id="Group_153" data-name="Group 153">
          <path id="Path_132" data-name="Path 132" d="M119.807,177.85a15.524,15.524,0,0,1-8.163-2.134,14.515,14.515,0,0,1-5.557-6.2,25.02,25.02,0,0,1,0-19.651,14.523,14.523,0,0,1,5.557-6.2,16.68,16.68,0,0,1,16.326,0,14.538,14.538,0,0,1,5.558,6.2,25.031,25.031,0,0,1,0,19.651,14.529,14.529,0,0,1-5.558,6.2A15.524,15.524,0,0,1,119.807,177.85Zm0-9.378a2.98,2.98,0,0,0,2.035-.794,5.533,5.533,0,0,0,1.414-2.73,26.939,26.939,0,0,0,0-10.545,5.518,5.518,0,0,0-1.414-2.7,3,3,0,0,0-4.069,0,5.519,5.519,0,0,0-1.415,2.7,26.939,26.939,0,0,0,0,10.545,5.533,5.533,0,0,0,1.415,2.73A2.974,2.974,0,0,0,119.807,168.472Z" fill="#fff"/>
        </g>
      </g>
    </g>
  </g>
</svg>
